<svg xmlns="http://www.w3.org/2000/svg" version="1.1" xmlns:xlink="http://www.w3.org/1999/xlink" width="512" height="512" x="0" y="0" viewBox="0 0 32 32" style="enable-background:new 0 0 512 512" xml:space="preserve" class=""><g><path fill="#00e676" d="M30 16c0 4.3-1.95 8.15-5 10.71-2.44 2.06-5.58 3.29-9 3.29s-6.56-1.23-9-3.29C3.95 24.15 2 20.3 2 16 2 8.28 8.28 2 16 2s14 6.28 14 14z" opacity="1" data-original="#00e676" class=""></path><path fill="#004d40" d="M25 26.71C22.56 28.77 19.42 30 16 30s-6.56-1.23-9-3.29c0-1.78.01-1.68.01-1.78.12-4.76 2.56-7.88 6.68-8.7C12.07 15.11 11 12.94 11 11c0-2.76 2.24-5 5-5s5 2.24 5 5c0 1.94-1.07 4.11-2.69 5.23 4.23.84 6.69 4.1 6.69 9.07z" opacity="1" data-original="#004d40" class=""></path></g></svg>