<?xml version="1.0" encoding="UTF-8" standalone="no"?>
<!-- Created with Inkscape (http://www.inkscape.org/) -->

<svg
   width="67.369659mm"
   height="17.482382mm"
   viewBox="0 0 67.36966 17.482382"
   version="1.1"
   id="svg5"
   xml:space="preserve"
   sodipodi:docname="logo.svg"
   inkscape:version="1.2.1 (9c6d41e, 2022-07-14)"
   xmlns:inkscape="http://www.inkscape.org/namespaces/inkscape"
   xmlns:sodipodi="http://sodipodi.sourceforge.net/DTD/sodipodi-0.dtd"
   xmlns="http://www.w3.org/2000/svg"
   xmlns:svg="http://www.w3.org/2000/svg"><sodipodi:namedview
     id="namedview7"
     pagecolor="#ffffff"
     bordercolor="#000000"
     borderopacity="0.25"
     inkscape:showpageshadow="2"
     inkscape:pageopacity="0.0"
     inkscape:pagecheckerboard="0"
     inkscape:deskcolor="#d1d1d1"
     inkscape:document-units="mm"
     showgrid="false"
     inkscape:zoom="4.2804073"
     inkscape:cx="152.43876"
     inkscape:cy="27.684281"
     inkscape:window-width="2560"
     inkscape:window-height="1027"
     inkscape:window-x="0"
     inkscape:window-y="25"
     inkscape:window-maximized="1"
     inkscape:current-layer="layer1" /><defs
     id="defs2" /><g
     inkscape:label="Layer 1"
     inkscape:groupmode="layer"
     id="layer1"
     transform="translate(-69.558301,-75.023495)"><rect
       style="fill:#011012;fill-opacity:1;fill-rule:evenodd;stroke:#ffffff;stroke-width:0.0810001;stroke-linejoin:round"
       id="rect808"
       width="17.401381"
       height="17.401381"
       x="69.598801"
       y="75.063995"
       rx="1.3960172"
       ry="1.3960172"
       inkscape:export-filename="logo.svg"
       inkscape:export-xdpi="96"
       inkscape:export-ydpi="96" /><path
       id="path2563"
       style="color:#000000;fill:#93ea84;fill-rule:evenodd;stroke-width:0.808781;stroke-linejoin:round"
       d="m 84.092266,79.727923 c -1.126919,0.02536 -2.090352,0.07941 -2.933167,0.219841 -1.210775,0.201744 -2.232845,0.615671 -2.96326,1.428133 -1.178553,1.310938 -1.495239,3.259235 -1.628747,6.450209 l 1.688932,0.880619 c 0.148229,-3.572492 0.504695,-5.399576 1.212888,-6.18732 0.405596,-0.451154 0.965441,-0.715498 1.971467,-0.883126 0.486609,-0.08108 1.0666,-0.131076 1.742011,-0.163 z" /><path
       id="path2557"
       style="color:#000000;fill:#93ea84;fill-rule:evenodd;stroke-width:0.808781;stroke-linejoin:round"
       d="m 73.936135,78.584305 -1.667617,0.868916 c 0.04842,0.411833 0.137852,0.78243 0.280444,1.121776 0.257807,0.613541 0.730543,1.0978 1.279343,1.367948 0.822982,0.405112 1.730482,0.458347 2.794408,0.463087 0.181543,-0.607177 0.56489,-1.171111 1.050306,-1.713173 -1.544302,-0.0097 -2.634279,-0.06139 -3.08948,-0.28546 -0.231518,-0.113964 -0.338979,-0.215667 -0.456818,-0.496106 -0.107893,-0.256767 -0.189135,-0.688172 -0.190586,-1.326988 z"
       sodipodi:nodetypes="ccssccssc" /><g
       aria-label="TestSign"
       id="text624"
       style="font-size:12.9487px;line-height:0.658994px;font-family:'Inter 24pt';-inkscape-font-specification:'Inter 24pt';text-align:center;text-anchor:middle;fill:#011012;fill-rule:evenodd;stroke-width:2.77472;stroke-linejoin:round"
       transform="matrix(0.88372337,0,0,0.88372337,10.786745,10.982693)"><path
         d="M 95.963685,79.398924 H 93.91516 v 6.733577 q 0,0.58168 -0.259226,0.866197 -0.259227,0.278195 -0.670197,0.278195 -0.417292,0 -0.682841,-0.284517 -0.259227,-0.284518 -0.259227,-0.859875 v -6.733577 h -2.048525 q -0.480518,0 -0.714455,-0.208646 -0.233936,-0.214969 -0.233936,-0.562712 0,-0.360389 0.240259,-0.569035 0.246582,-0.208646 0.708132,-0.208646 h 5.968541 q 0.486841,0 0.720778,0.214969 0.240259,0.214969 0.240259,0.562712 0,0.347743 -0.240259,0.562712 -0.24026,0.208646 -0.720778,0.208646 z"
         style="font-family:'Arial Rounded MT Bold';-inkscape-font-specification:'Arial Rounded MT Bold, '"
         id="path416" /><path
         d="m 101.91958,84.191461 h -3.376271 q 0.0063,0.588002 0.233936,1.036907 0.233937,0.448905 0.613293,0.676519 0.385679,0.227614 0.847232,0.227614 0.30981,0 0.56271,-0.06955 0.25923,-0.07587 0.49949,-0.227613 0.24025,-0.158066 0.44258,-0.335099 0.20232,-0.177033 0.52477,-0.480518 0.13278,-0.113807 0.37936,-0.113807 0.26555,0 0.42994,0.14542 0.16439,0.14542 0.16439,0.41097 0,0.233936 -0.18336,0.550067 -0.18336,0.309807 -0.55639,0.600647 -0.36671,0.284518 -0.92942,0.474196 -0.55639,0.189678 -1.28349,0.189678 -1.662847,0 -2.585948,-0.948391 -0.923101,-0.948391 -0.923101,-2.573301 0,-0.765036 0.227614,-1.416264 0.227614,-0.657552 0.663874,-1.125424 0.43626,-0.467873 1.074843,-0.714455 0.638584,-0.252904 1.416268,-0.252904 1.01161,0 1.73239,0.429937 0.7271,0.423615 1.08749,1.100134 0.36039,0.676519 0.36039,1.378328 0,0.651229 -0.37304,0.847229 -0.37303,0.189679 -1.04955,0.189679 z M 98.543309,83.211456 H 101.673 q -0.0632,-0.885165 -0.48052,-1.321424 -0.41097,-0.442583 -1.08749,-0.442583 -0.644903,0 -1.062195,0.448905 -0.41097,0.442583 -0.499486,1.315102 z"
         style="font-family:'Arial Rounded MT Bold';-inkscape-font-specification:'Arial Rounded MT Bold, '"
         id="path418" /><path
         d="m 110.35394,85.019722 q 0,0.714455 -0.34774,1.226586 -0.34775,0.505809 -1.03059,0.771358 -0.67652,0.259227 -1.6502,0.259227 -0.92942,0 -1.5933,-0.284517 -0.66387,-0.284518 -0.98,-0.708132 -0.31613,-0.429938 -0.31613,-0.859875 0,-0.284517 0.20232,-0.486841 0.20233,-0.202323 0.51213,-0.202323 0.27188,0 0.4173,0.132775 0.14542,0.132774 0.27819,0.373033 0.26555,0.461551 0.63226,0.689165 0.37304,0.227613 1.01162,0.227613 0.51845,0 0.84723,-0.227613 0.3351,-0.233937 0.3351,-0.531099 0,-0.455228 -0.34775,-0.663874 -0.34142,-0.208646 -1.13174,-0.398324 -0.89149,-0.221292 -1.4542,-0.461551 -0.55639,-0.246581 -0.89149,-0.644906 -0.3351,-0.398324 -0.3351,-0.980004 0,-0.518454 0.30981,-0.980004 0.30981,-0.46155 0.91045,-0.733422 0.60697,-0.278195 1.46053,-0.278195 0.67019,0 1.20129,0.139097 0.53742,0.139098 0.89149,0.373034 0.36039,0.233936 0.54374,0.518454 0.18968,0.284517 0.18968,0.556389 0,0.297163 -0.20232,0.486841 -0.196,0.189678 -0.56271,0.189678 -0.26555,0 -0.45523,-0.151742 -0.18336,-0.151743 -0.42362,-0.455228 -0.196,-0.252904 -0.46155,-0.404647 -0.26555,-0.151743 -0.72077,-0.151743 -0.46788,0 -0.77768,0.202324 -0.30981,0.196001 -0.30981,0.493163 0,0.271872 0.22761,0.448905 0.22762,0.170711 0.61329,0.284518 0.38568,0.113807 1.0622,0.278194 0.80297,0.196001 1.30878,0.467873 0.51213,0.271873 0.77136,0.644906 0.26555,0.366712 0.26555,0.840907 z"
         style="font-family:'Arial Rounded MT Bold';-inkscape-font-specification:'Arial Rounded MT Bold, '"
         id="path420" /><path
         d="m 111.9093,80.410541 h 0.18968 v -1.036907 q 0,-0.417292 0.019,-0.651229 0.0253,-0.240259 0.12645,-0.410969 0.10116,-0.177033 0.29084,-0.284518 0.18968,-0.113807 0.42361,-0.113807 0.32878,0 0.59433,0.246582 0.17703,0.164388 0.22129,0.404647 0.0506,0.233936 0.0506,0.670196 v 1.176005 h 0.63226 q 0.36671,0 0.55639,0.177033 0.196,0.170711 0.196,0.442583 0,0.347743 -0.27819,0.486841 -0.27187,0.139097 -0.78401,0.139097 h -0.32245 v 3.173949 q 0,0.404647 0.0253,0.625938 0.0316,0.214969 0.15174,0.354066 0.12646,0.132775 0.40465,0.132775 0.15174,0 0.41097,-0.05058 0.25923,-0.0569 0.40465,-0.0569 0.20864,0 0.37303,0.17071 0.17071,0.164388 0.17071,0.410969 0,0.417292 -0.45523,0.638584 -0.45522,0.221291 -1.30878,0.221291 -0.80929,0 -1.22658,-0.271872 -0.41729,-0.271872 -0.55007,-0.75239 -0.12645,-0.480519 -0.12645,-1.28349 v -3.313046 h -0.22761 q -0.37304,0 -0.56904,-0.177033 -0.196,-0.177033 -0.196,-0.448905 0,-0.271872 0.20232,-0.442583 0.20865,-0.177033 0.60065,-0.177033 z"
         style="font-family:'Arial Rounded MT Bold';-inkscape-font-specification:'Arial Rounded MT Bold, '"
         id="path422" /><path
         d="m 123.56187,84.336881 q 0,0.840906 -0.43626,1.511103 -0.42994,0.670196 -1.26452,1.049553 -0.83459,0.379356 -1.97898,0.379356 -1.37201,0 -2.26349,-0.518454 -0.63226,-0.373034 -1.03059,-0.992649 -0.392,-0.625938 -0.392,-1.213941 0,-0.341421 0.23394,-0.58168 0.24025,-0.246581 0.60697,-0.246581 0.29716,0 0.49948,0.189678 0.20865,0.189678 0.35407,0.562712 0.17703,0.442582 0.37935,0.739745 0.20865,0.297163 0.58168,0.493163 0.37304,0.189679 0.98001,0.189679 0.83458,0 1.35304,-0.385679 0.52477,-0.392002 0.52477,-0.973682 0,-0.46155 -0.28451,-0.746068 -0.2782,-0.29084 -0.7271,-0.442582 -0.44259,-0.151743 -1.18865,-0.322453 -0.99898,-0.233937 -1.6755,-0.543744 -0.67019,-0.316131 -1.06852,-0.853552 -0.392,-0.543745 -0.392,-1.346716 0,-0.765035 0.41729,-1.35936 0.4173,-0.594325 1.20762,-0.910456 0.79033,-0.322453 1.85885,-0.322453 0.85355,0 1.47317,0.214969 0.62593,0.208646 1.0369,0.562712 0.41097,0.347743 0.60065,0.733422 0.18968,0.385679 0.18968,0.752391 0,0.335098 -0.24026,0.60697 -0.23394,0.265549 -0.588,0.265549 -0.32245,0 -0.49316,-0.158065 -0.16439,-0.164388 -0.36039,-0.531099 -0.25291,-0.524776 -0.60697,-0.815616 -0.35407,-0.297163 -1.13807,-0.297163 -0.7271,0 -1.17601,0.322453 -0.44258,0.316131 -0.44258,0.765036 0,0.278195 0.15174,0.480518 0.15174,0.202323 0.41729,0.347743 0.26555,0.14542 0.53743,0.227614 0.27187,0.08219 0.89781,0.240259 0.784,0.183356 1.41626,0.404647 0.63858,0.221291 1.08117,0.537422 0.4489,0.31613 0.69548,0.802971 0.25291,0.480518 0.25291,1.182328 z"
         style="font-family:'Arial Rounded MT Bold';-inkscape-font-specification:'Arial Rounded MT Bold, '"
         id="path424" /><path
         d="m 126.76111,81.238803 v 4.988537 q 0,0.518454 -0.24658,0.784003 -0.24659,0.26555 -0.62594,0.26555 -0.37936,0 -0.61962,-0.271872 -0.23393,-0.271872 -0.23393,-0.777681 v -4.937956 q 0,-0.512131 0.23393,-0.771358 0.24026,-0.259227 0.61962,-0.259227 0.37935,0 0.62594,0.259227 0.24658,0.259227 0.24658,0.720777 z m -0.85355,-1.782975 q -0.36039,0 -0.61962,-0.221292 -0.2529,-0.221291 -0.2529,-0.625938 0,-0.366711 0.25922,-0.600647 0.26555,-0.24026 0.6133,-0.24026 0.33509,0 0.59432,0.214969 0.25923,0.214969 0.25923,0.625938 0,0.398325 -0.25291,0.625938 -0.2529,0.221292 -0.60064,0.221292 z"
         style="font-family:'Arial Rounded MT Bold';-inkscape-font-specification:'Arial Rounded MT Bold, '"
         id="path426" /><path
         d="m 134.89198,81.52332 v 5.013828 q 0,0.859875 -0.18336,1.47949 -0.18335,0.619616 -0.588,1.024262 -0.40465,0.404647 -1.0622,0.600648 -0.65123,0.196001 -1.62491,0.196001 -0.89149,0 -1.5933,-0.252904 -0.7018,-0.246582 -1.08116,-0.644906 -0.37936,-0.392002 -0.37936,-0.809294 0,-0.31613 0.21497,-0.518454 0.21497,-0.196001 0.51845,-0.196001 0.37936,0 0.66388,0.335099 0.1391,0.17071 0.28452,0.34142 0.15174,0.177033 0.32877,0.297163 0.18336,0.126452 0.43626,0.183356 0.25291,0.06323 0.58168,0.06323 0.6702,0 1.03691,-0.189679 0.37303,-0.183355 0.51845,-0.518453 0.15175,-0.335099 0.17704,-0.720778 0.0253,-0.379356 0.0379,-1.226586 -0.39832,0.55639 -0.9231,0.84723 -0.51845,0.29084 -1.23923,0.29084 -0.8662,0 -1.51743,-0.442583 -0.6449,-0.442582 -0.99265,-1.239231 -0.34774,-0.796648 -0.34774,-1.839879 0,-0.77768 0.20865,-1.403618 0.21497,-0.625938 0.60697,-1.055876 0.392,-0.429937 0.90413,-0.644906 0.51213,-0.221291 1.12542,-0.221291 0.73343,0 1.27085,0.284517 0.53742,0.278195 0.99897,0.878843 v -0.233937 q 0,-0.448905 0.22129,-0.695487 0.22129,-0.246581 0.56904,-0.246581 0.49948,0 0.66387,0.328775 0.16439,0.322453 0.16439,0.935746 z m -5.00118,2.187622 q 0,1.049553 0.45522,1.586975 0.46155,0.537422 1.18865,0.537422 0.42994,0 0.8093,-0.227614 0.38568,-0.233937 0.62594,-0.695487 0.24025,-0.467873 0.24025,-1.131747 0,-1.055875 -0.46787,-1.643878 -0.46155,-0.588002 -1.22026,-0.588002 -0.73975,0 -1.18865,0.562712 -0.44258,0.562712 -0.44258,1.599619 z"
         style="font-family:'Arial Rounded MT Bold';-inkscape-font-specification:'Arial Rounded MT Bold, '"
         id="path428" /><path
         d="m 138.20502,81.213513 v 0.208646 q 0.45523,-0.600648 0.99265,-0.878843 0.54375,-0.284517 1.24556,-0.284517 0.68284,0 1.22026,0.297162 0.53742,0.297163 0.80297,0.840907 0.17071,0.31613 0.22129,0.682842 0.0506,0.366711 0.0506,0.935746 v 3.211884 q 0,0.518454 -0.24026,0.784003 -0.23393,0.26555 -0.61329,0.26555 -0.38568,0 -0.62594,-0.271872 -0.24026,-0.271872 -0.24026,-0.777681 v -2.876786 q 0,-0.853552 -0.24025,-1.302457 -0.23394,-0.455228 -0.94207,-0.455228 -0.46155,0 -0.84091,0.278195 -0.37936,0.271872 -0.55639,0.75239 -0.12645,0.385679 -0.12645,1.441554 v 2.162332 q 0,0.524777 -0.24658,0.790326 -0.24026,0.259227 -0.62594,0.259227 -0.37304,0 -0.61329,-0.271872 -0.24026,-0.271872 -0.24026,-0.777681 v -4.988537 q 0,-0.493163 0.21497,-0.733423 0.21496,-0.246581 0.588,-0.246581 0.22761,0 0.41097,0.107484 0.18335,0.107484 0.29084,0.322453 0.1138,0.214969 0.1138,0.524777 z"
         style="font-family:'Arial Rounded MT Bold';-inkscape-font-specification:'Arial Rounded MT Bold, '"
         id="path430" /></g></g></svg>
